<?xml version="1.0" encoding="UTF-8"?>
<svg width="200" height="60" viewBox="0 0 200 60" fill="none" xmlns="http://www.w3.org/2000/svg">
  <path d="M40 10C24.536 10 12 22.536 12 38C12 53.464 24.536 66 40 66C55.464 66 68 53.464 68 38C68 22.536 55.464 10 40 10Z" fill="#8B4513"/>
  <path d="M40 14C26.745 14 16 24.745 16 38C16 51.255 26.745 62 40 62C53.255 62 64 51.255 64 38C64 24.745 53.255 14 40 14Z" fill="#D2B48C"/>
  <path d="M40 20C30.059 20 22 28.059 22 38C22 47.941 30.059 56 40 56C49.941 56 58 47.941 58 38C58 28.059 49.941 20 40 20Z" fill="#8B4513"/>
  <path d="M36 30L44 38L36 46" stroke="#D2B48C" stroke-width="3" stroke-linecap="round" stroke-linejoin="round"/>
  <path d="M80 25H88.5C92.5 25 95 27 95 30.5C95 34 92.5 36 88.5 36H84V45H80V25ZM88 32.5C89.5 32.5 90.5 31.5 90.5 30.5C90.5 29.5 89.5 28.5 88 28.5H84V32.5H88Z" fill="#8B4513"/>
  <path d="M97 25H101V45H97V25Z" fill="#8B4513"/>
  <path d="M104 25H108L115 38.5V25H119V45H115L108 31.5V45H104V25Z" fill="#8B4513"/>
  <path d="M122 25H126V41.5H134V45H122V25Z" fill="#8B4513"/>
  <path d="M136 25H150V28.5H140V33H148V36.5H140V41.5H150V45H136V25Z" fill="#8B4513"/>
  <path d="M152 25H156V41.5H164V45H152V25Z" fill="#8B4513"/>
  <path d="M166 25H170V45H166V25Z" fill="#8B4513"/>
  <path d="M173 25H177L184 38.5V25H188V45H184L177 31.5V45H173V25Z" fill="#8B4513"/>
</svg>